G04*
G04 #@! TF.GenerationSoftware,Altium Limited,Altium Designer,24.0.1 (36)*
G04*
G04 Layer_Color=65535*
%FSLAX44Y44*%
%MOMM*%
G71*
G04*
G04 #@! TF.SameCoordinates,40904156-3D38-421D-9BDF-46F29154AA19*
G04*
G04*
G04 #@! TF.FilePolarity,Positive*
G04*
G01*
G75*
%ADD10C,1.0000*%
%ADD11C,0.2500*%
%ADD12C,0.2000*%
%ADD13C,0.2540*%
%ADD14C,0.2000*%
%ADD15C,0.2032*%
%ADD16C,0.3000*%
%ADD17C,0.1350*%
%ADD18C,0.1524*%
G36*
X327916Y207311D02*
X328009Y207125D01*
X328286Y206848D01*
X328657Y206477D01*
X329120Y206014D01*
X329582Y205459D01*
X330694Y204070D01*
X331990Y202496D01*
X333193Y200737D01*
X334397Y198793D01*
X335415Y196849D01*
Y196756D01*
X335508Y196571D01*
X335600Y196293D01*
X335786Y195923D01*
X335971Y195460D01*
X336156Y194812D01*
X336619Y193423D01*
X337082Y191664D01*
X337452Y189627D01*
X337730Y187405D01*
X337822Y184998D01*
Y184165D01*
X337730Y183517D01*
Y182776D01*
X337637Y181943D01*
X337452Y181017D01*
X337267Y179906D01*
X336804Y177684D01*
X336063Y175369D01*
X334952Y173055D01*
X334304Y171944D01*
X333564Y170925D01*
X333471Y170833D01*
X333378Y170740D01*
X333101Y170462D01*
X332823Y170092D01*
X331805Y169259D01*
X330601Y168333D01*
X328934Y167315D01*
X327083Y166481D01*
X325972Y166111D01*
X324861Y165833D01*
X323657Y165741D01*
X322361Y165648D01*
X322268D01*
X322083D01*
X321806D01*
X321343Y165741D01*
X320787D01*
X320232Y165833D01*
X318750Y166204D01*
X317176Y166667D01*
X315325Y167407D01*
X313566Y168518D01*
X312640Y169166D01*
X311807Y169907D01*
X311714Y170000D01*
X311621Y170092D01*
X311344Y170370D01*
X311066Y170740D01*
X310696Y171203D01*
X310233Y171759D01*
X309770Y172407D01*
X309307Y173240D01*
X308751Y174073D01*
X308196Y175092D01*
X307640Y176203D01*
X307177Y177406D01*
X306622Y178702D01*
X306159Y180091D01*
X305789Y181572D01*
X305418Y183239D01*
Y183146D01*
X305233Y182869D01*
X305048Y182406D01*
X304770Y181943D01*
X304400Y181202D01*
X303937Y180554D01*
X302826Y178980D01*
X302085Y178147D01*
X301252Y177314D01*
X300326Y176665D01*
X299401Y176017D01*
X298290Y175462D01*
X297086Y174999D01*
X295697Y174721D01*
X294308Y174629D01*
X294216D01*
X294031D01*
X293660D01*
X293290Y174721D01*
X292735Y174814D01*
X292086Y174906D01*
X290605Y175369D01*
X288939Y176110D01*
X288105Y176573D01*
X287180Y177128D01*
X286254Y177777D01*
X285328Y178610D01*
X284402Y179536D01*
X283569Y180554D01*
X283476Y180647D01*
X283384Y180832D01*
X283106Y181202D01*
X282828Y181572D01*
X282550Y182220D01*
X282087Y182869D01*
X281717Y183702D01*
X281254Y184535D01*
X280884Y185553D01*
X280421Y186665D01*
X279773Y189072D01*
X279217Y191849D01*
X279125Y193330D01*
X279032Y194904D01*
Y195923D01*
X279125Y196941D01*
X279310Y198237D01*
X279588Y199719D01*
X280051Y201107D01*
X280606Y202496D01*
X281439Y203607D01*
X281532Y203700D01*
X281810Y204070D01*
X282273Y204533D01*
X282921Y204996D01*
X283569Y205551D01*
X284309Y205922D01*
X285050Y206292D01*
X285791Y206385D01*
X285883D01*
X285976D01*
X286346Y206292D01*
X286717Y206107D01*
X287272Y205922D01*
X287920Y205551D01*
X288661Y204996D01*
X289587Y204348D01*
X289679Y204255D01*
X289957Y203978D01*
X290420Y203700D01*
X290790Y203237D01*
X291253Y202774D01*
X291716Y202218D01*
X291994Y201756D01*
X292086Y201385D01*
X291994Y201200D01*
X291901Y201015D01*
X291716Y200737D01*
X291346Y200552D01*
X290790Y200274D01*
X290050Y199996D01*
X289031Y199811D01*
X288939D01*
X288753Y199719D01*
X288383D01*
X287920Y199534D01*
X286809Y199163D01*
X285513Y198700D01*
X284309Y197960D01*
X283198Y196941D01*
X282736Y196386D01*
X282365Y195738D01*
X282180Y194997D01*
X282087Y194256D01*
Y194071D01*
X282180Y193701D01*
X282273Y193053D01*
X282550Y192220D01*
X283013Y191201D01*
X283754Y190183D01*
X284680Y189164D01*
X285976Y188053D01*
X286161Y187961D01*
X286624Y187590D01*
X287457Y187220D01*
X288476Y186665D01*
X289772Y186202D01*
X291253Y185739D01*
X292920Y185368D01*
X294679Y185276D01*
X294771D01*
X295049D01*
X295419Y185368D01*
X295882D01*
X297178Y185646D01*
X298567Y186202D01*
X299308Y186572D01*
X299956Y187127D01*
X300604Y187683D01*
X301252Y188424D01*
X301715Y189257D01*
X302085Y190275D01*
X302363Y191479D01*
X302456Y192775D01*
Y193516D01*
X302548Y194071D01*
X302641Y194534D01*
Y194627D01*
X302826Y194812D01*
X303011Y194904D01*
X303382Y194997D01*
X303474D01*
X303659D01*
X303937D01*
X304307Y194904D01*
X305418Y194719D01*
X306714Y194349D01*
X306807D01*
X306992Y194256D01*
X307640Y193886D01*
X308288Y193423D01*
X308474Y193145D01*
X308566Y192775D01*
Y192405D01*
X308474Y192127D01*
Y191294D01*
X308381Y190738D01*
Y190646D01*
X308288Y190460D01*
Y190183D01*
X308196Y189720D01*
X308103Y188794D01*
Y187590D01*
X308196Y187035D01*
X308288Y186294D01*
X308566Y185276D01*
X308937Y184165D01*
X309585Y182869D01*
X310418Y181665D01*
X311621Y180461D01*
X311807Y180369D01*
X312269Y179998D01*
X313010Y179536D01*
X314029Y178980D01*
X315232Y178332D01*
X316714Y177869D01*
X318380Y177499D01*
X320139Y177406D01*
X320232D01*
X320417D01*
X320695D01*
X321065Y177499D01*
X321991Y177591D01*
X323287Y177869D01*
X324676Y178239D01*
X326157Y178888D01*
X327638Y179721D01*
X329027Y180924D01*
X329212Y181110D01*
X329582Y181572D01*
X330138Y182406D01*
X330786Y183424D01*
X331434Y184720D01*
X331990Y186294D01*
X332360Y188146D01*
X332545Y190090D01*
Y190831D01*
X332453Y191756D01*
X332267Y192960D01*
X331990Y194256D01*
X331527Y195830D01*
X330971Y197404D01*
X330138Y199071D01*
Y199163D01*
X330045Y199256D01*
X329675Y199811D01*
X329120Y200737D01*
X328379Y201848D01*
X327360Y203144D01*
X326157Y204533D01*
X324768Y205922D01*
X323194Y207403D01*
X327823D01*
X327916Y207311D01*
D02*
G37*
G36*
X292920Y162315D02*
X293846D01*
X294864Y162223D01*
X296068Y162037D01*
X297456Y161852D01*
X298938Y161667D01*
X300604Y161389D01*
X302271Y161019D01*
X304122Y160649D01*
X308103Y159538D01*
X310140Y158890D01*
X312269Y158149D01*
X312362D01*
X312732Y157964D01*
X313381Y157686D01*
X314214Y157408D01*
X315140Y156945D01*
X316251Y156482D01*
X317547Y155927D01*
X318843Y155279D01*
X321806Y153705D01*
X324953Y151853D01*
X328009Y149724D01*
X329397Y148613D01*
X330786Y147409D01*
X330879Y147317D01*
X331064Y147132D01*
X331434Y146761D01*
X331897Y146298D01*
X332453Y145650D01*
X333008Y145002D01*
X333656Y144169D01*
X334304Y143336D01*
X335600Y141299D01*
X336711Y138984D01*
X337174Y137781D01*
X337545Y136484D01*
X337730Y135188D01*
X337822Y133892D01*
Y133337D01*
X337730Y132966D01*
X337637Y131855D01*
X337360Y130559D01*
X336804Y129078D01*
X336156Y127504D01*
X335137Y126023D01*
X334582Y125282D01*
X333841Y124541D01*
X333749D01*
X333656Y124356D01*
X333101Y123986D01*
X332175Y123430D01*
X330971Y122782D01*
X329490Y122134D01*
X327638Y121579D01*
X325602Y121208D01*
X323287Y121023D01*
X323194D01*
X323009D01*
X322639D01*
X322176Y121116D01*
X321528D01*
X320695Y121301D01*
X319769Y121393D01*
X318750Y121579D01*
X317547Y121856D01*
X316158Y122134D01*
X314769Y122505D01*
X313103Y122875D01*
X311436Y123430D01*
X309492Y123986D01*
X307548Y124726D01*
X305418Y125467D01*
X305326Y125560D01*
X304955Y125652D01*
X304307Y125837D01*
X303567Y126115D01*
X302641Y126393D01*
X301623Y126763D01*
X300419Y127134D01*
X299215Y127504D01*
X296623Y128245D01*
X293938Y128893D01*
X292642Y129170D01*
X291438Y129356D01*
X290327Y129448D01*
X289401Y129541D01*
X289216D01*
X288846D01*
X288291Y129448D01*
X287642Y129356D01*
X285976Y128985D01*
X285235Y128708D01*
X284495Y128245D01*
X284402Y128152D01*
X284217Y128059D01*
X283939Y127782D01*
X283569Y127411D01*
X283291Y126948D01*
X283013Y126300D01*
X282828Y125652D01*
X282736Y124912D01*
Y124726D01*
X282828Y124356D01*
X282921Y123708D01*
X283198Y122875D01*
X283661Y121949D01*
X284309Y120838D01*
X285235Y119727D01*
X286531Y118616D01*
X286717Y118523D01*
X287180Y118153D01*
X287920Y117690D01*
X288939Y117227D01*
X290142Y116672D01*
X291438Y116209D01*
X292920Y115838D01*
X294494Y115746D01*
X294679D01*
X295049D01*
X295697Y115838D01*
X296438Y115931D01*
X297271Y116209D01*
X298104Y116487D01*
X298938Y116950D01*
X299678Y117505D01*
X299771Y117598D01*
X299956Y117783D01*
X300234Y118061D01*
X300604Y118431D01*
X301437Y118986D01*
X301808Y119171D01*
X302178Y119264D01*
X302271D01*
X302456D01*
X302733Y119171D01*
X303196Y119079D01*
X303659Y118801D01*
X304215Y118523D01*
X304863Y118061D01*
X305604Y117412D01*
X305696Y117320D01*
X305881Y117135D01*
X306159Y116764D01*
X306529Y116394D01*
X307177Y115376D01*
X307363Y114820D01*
X307455Y114265D01*
Y113987D01*
X307363Y113617D01*
X307177Y113246D01*
X306900Y112783D01*
X306437Y112228D01*
X305881Y111672D01*
X305141Y111117D01*
X305048Y111024D01*
X304770Y110932D01*
X304215Y110654D01*
X303659Y110469D01*
X302826Y110191D01*
X301993Y109913D01*
X300974Y109821D01*
X299956Y109728D01*
X299863D01*
X299586D01*
X299215D01*
X298660Y109821D01*
X298012Y109913D01*
X297271Y110006D01*
X296345Y110191D01*
X295419Y110376D01*
X293197Y111024D01*
X292086Y111487D01*
X290883Y111950D01*
X289587Y112598D01*
X288383Y113246D01*
X287087Y114079D01*
X285791Y115005D01*
X285698Y115098D01*
X285513Y115283D01*
X285143Y115561D01*
X284772Y115931D01*
X284217Y116487D01*
X283661Y117042D01*
X283013Y117783D01*
X282365Y118523D01*
X281162Y120375D01*
X280051Y122505D01*
X279680Y123615D01*
X279310Y124819D01*
X279125Y126115D01*
X279032Y127411D01*
Y127967D01*
X279125Y128337D01*
X279217Y129356D01*
X279495Y130559D01*
X280051Y131948D01*
X280791Y133429D01*
X281717Y134818D01*
X282365Y135466D01*
X283106Y136114D01*
X283291Y136299D01*
X283846Y136670D01*
X284772Y137133D01*
X285976Y137781D01*
X287550Y138429D01*
X289401Y138892D01*
X291623Y139262D01*
X294031Y139447D01*
X294216D01*
X294586D01*
X295234D01*
X296160Y139355D01*
X297178Y139262D01*
X298475Y139077D01*
X299771Y138892D01*
X301252Y138614D01*
X301437D01*
X301623Y138521D01*
X301993Y138429D01*
X302456Y138336D01*
X302919Y138151D01*
X303567Y138058D01*
X304215Y137781D01*
X305048Y137596D01*
X305974Y137318D01*
X306992Y136947D01*
X308103Y136577D01*
X309307Y136207D01*
X310696Y135744D01*
X312084Y135188D01*
X313658Y134633D01*
X313751D01*
X314029Y134540D01*
X314492Y134355D01*
X315047Y134170D01*
X315788Y133892D01*
X316621Y133614D01*
X318473Y133059D01*
X320509Y132503D01*
X322639Y131948D01*
X324768Y131578D01*
X325694Y131485D01*
X326527D01*
X326620D01*
X326990D01*
X327546Y131578D01*
X328194Y131670D01*
X329027Y131855D01*
X329768Y132226D01*
X330601Y132596D01*
X331342Y133152D01*
X331434Y133244D01*
X331619Y133429D01*
X331897Y133800D01*
X332267Y134263D01*
X332638Y134911D01*
X332915Y135651D01*
X333101Y136392D01*
X333193Y137318D01*
Y137503D01*
X333101Y137966D01*
X332915Y138799D01*
X332638Y139817D01*
X332082Y141021D01*
X331249Y142410D01*
X330694Y143151D01*
X330045Y143891D01*
X329397Y144632D01*
X328564Y145465D01*
X328471Y145558D01*
X328379Y145650D01*
X328101Y145835D01*
X327731Y146206D01*
X327268Y146576D01*
X326712Y146946D01*
X325324Y147965D01*
X323565Y149076D01*
X321528Y150279D01*
X319213Y151390D01*
X316528Y152501D01*
X316436D01*
X316158Y152594D01*
X315788Y152779D01*
X315232Y152964D01*
X314584Y153149D01*
X313843Y153427D01*
X312918Y153705D01*
X311992Y153983D01*
X309770Y154446D01*
X307363Y154909D01*
X304770Y155279D01*
X302178Y155371D01*
X302085D01*
X301900D01*
X301530D01*
X301067Y155279D01*
X300419D01*
X299678Y155186D01*
X298938Y155001D01*
X298012Y154909D01*
X295882Y154353D01*
X293475Y153612D01*
X290790Y152687D01*
X289401Y152038D01*
X288013Y151298D01*
X287920Y151205D01*
X287642Y151113D01*
X287272Y150927D01*
X286809Y150742D01*
X285698Y150279D01*
X285235Y150187D01*
X284865Y150094D01*
X284772D01*
X284587Y150187D01*
X284309Y150279D01*
X283846Y150557D01*
X283291Y150927D01*
X282736Y151575D01*
X281995Y152409D01*
X281254Y153612D01*
X281162Y153798D01*
X280884Y154168D01*
X280513Y154816D01*
X280143Y155557D01*
X279773Y156297D01*
X279403Y157130D01*
X279125Y157779D01*
X279032Y158334D01*
Y158427D01*
X279125Y158612D01*
X279217Y158890D01*
X279495Y159167D01*
X279958Y159630D01*
X280699Y160093D01*
X281717Y160556D01*
X282273Y160741D01*
X283013Y161019D01*
X283198Y161112D01*
X283661Y161204D01*
X284495Y161482D01*
X285513Y161760D01*
X286809Y161945D01*
X288198Y162223D01*
X289679Y162315D01*
X291253Y162408D01*
X291346D01*
X291716D01*
X292179D01*
X292920Y162315D01*
D02*
G37*
D10*
X373490Y158234D02*
G03*
X373490Y158234I-66538J0D01*
G01*
D11*
X446004Y342298D02*
G03*
X446004Y342298I-1250J0D01*
G01*
X323576Y303450D02*
G03*
X323576Y303450I-1250J0D01*
G01*
X249306Y371306D02*
G03*
X249306Y371306I-1250J0D01*
G01*
X344696Y362942D02*
G03*
X344696Y362942I-1250J0D01*
G01*
X289040Y423494D02*
G03*
X289040Y423494I-1250J0D01*
G01*
X69380Y106680D02*
G03*
X69380Y106680I-1250J0D01*
G01*
D12*
X151760Y374016D02*
D03*
D13*
X109524Y-534D02*
X509524D01*
X109524Y299466D02*
X509524D01*
Y-534D02*
Y299466D01*
X109524Y-534D02*
Y299466D01*
X537210Y201930D02*
X529593D01*
Y205739D01*
X530862Y207008D01*
X533401D01*
X534671Y205739D01*
Y201930D01*
Y204469D02*
X537210Y207008D01*
Y213356D02*
Y210817D01*
X535940Y209548D01*
X533401D01*
X532132Y210817D01*
Y213356D01*
X533401Y214626D01*
X534671D01*
Y209548D01*
X532132Y217165D02*
X537210Y219704D01*
X532132Y222243D01*
X537210Y224783D02*
Y227322D01*
Y226052D01*
X532132D01*
Y224783D01*
X537210Y231131D02*
Y234939D01*
X535940Y236209D01*
X534671Y234939D01*
Y232400D01*
X533401Y231131D01*
X532132Y232400D01*
Y236209D01*
X537210Y238748D02*
Y241287D01*
Y240018D01*
X532132D01*
Y238748D01*
X537210Y246366D02*
Y248905D01*
X535940Y250174D01*
X533401D01*
X532132Y248905D01*
Y246366D01*
X533401Y245096D01*
X535940D01*
X537210Y246366D01*
Y252714D02*
X532132D01*
Y256522D01*
X533401Y257792D01*
X537210D01*
X532132Y267949D02*
Y269218D01*
X533401D01*
Y267949D01*
X532132D01*
X535940D02*
Y269218D01*
X537210D01*
Y267949D01*
X535940D01*
X537210Y281914D02*
Y284453D01*
Y283184D01*
X529593D01*
X530862Y281914D01*
X537210Y288262D02*
X535940D01*
Y289532D01*
X537210D01*
Y288262D01*
X530862Y294610D02*
X529593Y295880D01*
Y298419D01*
X530862Y299688D01*
X532132D01*
X533401Y298419D01*
Y297149D01*
Y298419D01*
X534671Y299688D01*
X535940D01*
X537210Y298419D01*
Y295880D01*
X535940Y294610D01*
X453140Y392432D02*
X455679Y389893D01*
X460758D01*
X463297Y392432D01*
Y402588D01*
X460758Y405127D01*
X455679D01*
X453140Y402588D01*
Y400049D01*
X455679Y397510D01*
X463297D01*
X468375Y405127D02*
Y394971D01*
X473453Y389893D01*
X478532Y394971D01*
Y405127D01*
D14*
X449034Y322957D02*
X525034D01*
X449034D02*
Y332958D01*
X525034Y322957D02*
Y381958D01*
X449031Y381960D02*
X525031D01*
X449034Y371958D02*
Y381958D01*
X214246Y316224D02*
X273246D01*
Y361224D01*
X214246Y316224D02*
Y361224D01*
X273246D01*
X352826Y409304D02*
X355326D01*
X352826Y423804D02*
X355326D01*
X331326Y322139D02*
Y338261D01*
X313326Y322139D02*
Y338261D01*
X422286Y333262D02*
Y335762D01*
X407786Y333262D02*
Y335762D01*
X373772Y329706D02*
Y332206D01*
X359272Y329706D02*
Y332206D01*
X242556Y394806D02*
Y399306D01*
X254556Y405806D02*
X260556D01*
X272556Y394806D02*
Y399306D01*
X174010Y353706D02*
X176510D01*
X174010Y339206D02*
X176510D01*
X346196Y382692D02*
X377196D01*
X346196Y372692D02*
X377196D01*
Y382692D01*
X346196Y372692D02*
Y382692D01*
X296790Y388994D02*
Y403994D01*
X279790Y388994D02*
Y403994D01*
X333282Y393668D02*
X333532D01*
X305532D02*
X305782D01*
X305532Y358668D02*
Y393668D01*
X333282Y358668D02*
X333532D01*
X305532D02*
X305782D01*
X333532D02*
Y393668D01*
X203592Y380766D02*
Y383266D01*
X189092Y380766D02*
Y383266D01*
X7381Y131130D02*
X15500D01*
X42260Y131133D02*
X54333D01*
Y129820D02*
Y131133D01*
X54380Y56227D02*
Y57530D01*
X42260Y56227D02*
X54380D01*
X7380D02*
X15500D01*
X7381Y56230D02*
Y131130D01*
D15*
X132712Y22352D02*
X139060D01*
Y26584D01*
X132712Y28700D02*
Y30816D01*
Y29758D01*
X139060D01*
Y28700D01*
Y30816D01*
X135886Y33990D02*
Y38222D01*
X132712Y40338D02*
Y42454D01*
Y41396D01*
X139060D01*
Y40338D01*
Y42454D01*
X132712Y48802D02*
Y46686D01*
X133770Y45628D01*
X138002D01*
X139060Y46686D01*
Y48802D01*
X138002Y49860D01*
X133770D01*
X132712Y48802D01*
X139060Y51976D02*
X132712D01*
X139060Y56208D01*
X132712D01*
X145206Y22352D02*
X151554D01*
Y25526D01*
X150496Y26584D01*
X149438D01*
X148380Y25526D01*
Y22352D01*
Y25526D01*
X147322Y26584D01*
X146264D01*
X145206Y25526D01*
Y22352D01*
X147322Y29758D02*
Y31874D01*
X148380Y32932D01*
X151554D01*
Y29758D01*
X150496Y28700D01*
X149438Y29758D01*
Y32932D01*
X146264Y36106D02*
X147322D01*
Y35048D01*
Y37164D01*
Y36106D01*
X150496D01*
X151554Y37164D01*
X146264Y41396D02*
X147322D01*
Y40338D01*
Y42454D01*
Y41396D01*
X150496D01*
X151554Y42454D01*
Y48802D02*
Y46686D01*
X150496Y45628D01*
X148380D01*
X147322Y46686D01*
Y48802D01*
X148380Y49860D01*
X149438D01*
Y45628D01*
X147322Y51976D02*
X151554D01*
X149438D01*
X148380Y53034D01*
X147322Y54092D01*
Y55150D01*
Y58324D02*
X150496D01*
X151554Y59382D01*
Y62556D01*
X152612D01*
X153670Y61498D01*
Y60440D01*
X151554Y62556D02*
X147322D01*
D16*
X251412Y290020D02*
X261409D01*
X229060Y290192D02*
X239057D01*
X234058Y295191D02*
Y285194D01*
X534622Y344548D02*
X544619D01*
X539620Y349547D02*
Y339550D01*
X534114Y362664D02*
X544111D01*
D17*
X421839Y374693D02*
Y381211D01*
X425098D01*
X426185Y380125D01*
Y377952D01*
X425098Y376866D01*
X421839D01*
X424012D02*
X426185Y374693D01*
X432703D02*
X428357D01*
X432703Y379038D01*
Y380125D01*
X431616Y381211D01*
X429444D01*
X428357Y380125D01*
X434875Y374693D02*
Y379038D01*
X437048Y381211D01*
X439221Y379038D01*
Y374693D01*
Y377952D01*
X434875D01*
D18*
X340906Y354053D02*
Y348763D01*
X341964Y347705D01*
X344080D01*
X345138Y348763D01*
Y354053D01*
X347254Y352995D02*
X348312Y354053D01*
X350428D01*
X351486Y352995D01*
Y351937D01*
X350428Y350879D01*
X349370D01*
X350428D01*
X351486Y349821D01*
Y348763D01*
X350428Y347705D01*
X348312D01*
X347254Y348763D01*
X392982Y374518D02*
Y380866D01*
X396156D01*
X397214Y379808D01*
Y377692D01*
X396156Y376634D01*
X392982D01*
X395098D02*
X397214Y374518D01*
X403562D02*
X399330D01*
X403562Y378750D01*
Y379808D01*
X402504Y380866D01*
X400388D01*
X399330Y379808D01*
X294938Y313568D02*
Y307220D01*
X298112D01*
X299170Y308278D01*
Y312510D01*
X298112Y313568D01*
X294938D01*
X301286Y312510D02*
X302344Y313568D01*
X304460D01*
X305518Y312510D01*
Y311452D01*
X304460Y310394D01*
X303402D01*
X304460D01*
X305518Y309336D01*
Y308278D01*
X304460Y307220D01*
X302344D01*
X301286Y308278D01*
X381138Y418670D02*
X380080Y419728D01*
X377964D01*
X376906Y418670D01*
Y414438D01*
X377964Y413380D01*
X380080D01*
X381138Y414438D01*
X383254Y418670D02*
X384312Y419728D01*
X386428D01*
X387486Y418670D01*
Y417612D01*
X386428Y416554D01*
X385370D01*
X386428D01*
X387486Y415496D01*
Y414438D01*
X386428Y413380D01*
X384312D01*
X383254Y414438D01*
X303240Y289199D02*
X307472D01*
X305356D01*
Y282851D01*
X309588D02*
Y289199D01*
X312762D01*
X313820Y288141D01*
Y286025D01*
X312762Y284967D01*
X309588D01*
X315936Y281793D02*
X320168D01*
X326516Y288141D02*
X325458Y289199D01*
X323342D01*
X322284Y288141D01*
Y283909D01*
X323342Y282851D01*
X325458D01*
X326516Y283909D01*
Y286025D01*
X324400D01*
X328632Y282851D02*
Y289199D01*
X332864Y282851D01*
Y289199D01*
X334980D02*
Y282851D01*
X338154D01*
X339212Y283909D01*
Y288141D01*
X338154Y289199D01*
X334980D01*
X341328Y282851D02*
X343444D01*
X342386D01*
Y289199D01*
X341328Y288141D01*
X431210Y432942D02*
X435442D01*
X433326D01*
Y426594D01*
X437558D02*
Y432942D01*
X440732D01*
X441790Y431884D01*
Y429768D01*
X440732Y428710D01*
X437558D01*
X447080Y426594D02*
Y432942D01*
X443906Y429768D01*
X448138D01*
X279826Y434720D02*
X284058D01*
X281942D01*
Y428372D01*
X286174D02*
Y434720D01*
X289348D01*
X290406Y433662D01*
Y431546D01*
X289348Y430488D01*
X286174D01*
X292522Y433662D02*
X293580Y434720D01*
X295696D01*
X296754Y433662D01*
Y432604D01*
X295696Y431546D01*
X294638D01*
X295696D01*
X296754Y430488D01*
Y429430D01*
X295696Y428372D01*
X293580D01*
X292522Y429430D01*
X235884Y434720D02*
X240116D01*
X238000D01*
Y428372D01*
X242232D02*
Y434720D01*
X245406D01*
X246464Y433662D01*
Y431546D01*
X245406Y430488D01*
X242232D01*
X252812Y428372D02*
X248580D01*
X252812Y432604D01*
Y433662D01*
X251754Y434720D01*
X249638D01*
X248580Y433662D01*
X189444Y434720D02*
X193676D01*
X191560D01*
Y428372D01*
X195792D02*
Y434720D01*
X198966D01*
X200024Y433662D01*
Y431546D01*
X198966Y430488D01*
X195792D01*
X202140Y428372D02*
X204256D01*
X203198D01*
Y434720D01*
X202140Y433662D01*
X285286Y371474D02*
Y365126D01*
X288460D01*
X289518Y366184D01*
Y370416D01*
X288460Y371474D01*
X285286D01*
X295866Y365126D02*
X291634D01*
X295866Y369358D01*
Y370416D01*
X294808Y371474D01*
X292692D01*
X291634Y370416D01*
X223224Y371528D02*
X221108D01*
X222166D01*
Y366238D01*
X221108Y365180D01*
X220050D01*
X218992Y366238D01*
X229572Y365180D02*
X225340D01*
X229572Y369412D01*
Y370470D01*
X228514Y371528D01*
X226398D01*
X225340Y370470D01*
X155028Y416942D02*
Y411652D01*
X156086Y410594D01*
X158202D01*
X159260Y411652D01*
Y416942D01*
X161376Y410594D02*
X163492D01*
X162434D01*
Y416942D01*
X161376Y415884D01*
X226104Y385698D02*
Y380408D01*
X227162Y379350D01*
X229278D01*
X230336Y380408D01*
Y385698D01*
X236684Y379350D02*
X232452D01*
X236684Y383582D01*
Y384640D01*
X235626Y385698D01*
X233510D01*
X232452Y384640D01*
X136220Y410067D02*
Y416415D01*
X139394D01*
X140452Y415357D01*
Y413241D01*
X139394Y412183D01*
X136220D01*
X138336D02*
X140452Y410067D01*
X142568Y415357D02*
X143626Y416415D01*
X145742D01*
X146800Y415357D01*
Y414299D01*
X145742Y413241D01*
X144684D01*
X145742D01*
X146800Y412183D01*
Y411125D01*
X145742Y410067D01*
X143626D01*
X142568Y411125D01*
X136464Y327262D02*
Y333610D01*
X139638D01*
X140696Y332552D01*
Y330436D01*
X139638Y329378D01*
X136464D01*
X138580D02*
X140696Y327262D01*
X145986D02*
Y333610D01*
X142812Y330436D01*
X147044D01*
X391246Y305944D02*
Y312292D01*
X394420D01*
X395478Y311234D01*
Y309118D01*
X394420Y308060D01*
X391246D01*
X393362D02*
X395478Y305944D01*
X397594D02*
X399710D01*
X398652D01*
Y312292D01*
X397594Y311234D01*
X315300Y414728D02*
Y408380D01*
X319532D01*
X321648D02*
X323764D01*
X322706D01*
Y414728D01*
X321648Y413670D01*
X67956Y130680D02*
Y128564D01*
Y129622D01*
X73246D01*
X74304Y128564D01*
Y127506D01*
X73246Y126448D01*
X74304Y132796D02*
Y134912D01*
Y133854D01*
X67956D01*
X69014Y132796D01*
X366226Y311234D02*
X365168Y312292D01*
X363052D01*
X361994Y311234D01*
Y307002D01*
X363052Y305944D01*
X365168D01*
X366226Y307002D01*
X372574Y312292D02*
X368342D01*
Y309118D01*
X370458Y310176D01*
X371516D01*
X372574Y309118D01*
Y307002D01*
X371516Y305944D01*
X369400D01*
X368342Y307002D01*
X414740Y311234D02*
X413682Y312292D01*
X411566D01*
X410508Y311234D01*
Y307002D01*
X411566Y305944D01*
X413682D01*
X414740Y307002D01*
X420030Y305944D02*
Y312292D01*
X416856Y309118D01*
X421088D01*
X198586Y348572D02*
X197528Y349630D01*
X195412D01*
X194354Y348572D01*
Y344340D01*
X195412Y343282D01*
X197528D01*
X198586Y344340D01*
X204934Y343282D02*
X200702D01*
X204934Y347514D01*
Y348572D01*
X203876Y349630D01*
X201760D01*
X200702Y348572D01*
X210820Y395182D02*
X209762Y396240D01*
X207646D01*
X206588Y395182D01*
Y390950D01*
X207646Y389892D01*
X209762D01*
X210820Y390950D01*
X212936Y389892D02*
X215052D01*
X213994D01*
Y396240D01*
X212936Y395182D01*
M02*
