G04*
G04 #@! TF.GenerationSoftware,Altium Limited,Altium Designer,24.0.1 (36)*
G04*
G04 Layer_Physical_Order=1*
G04 Layer_Color=255*
%FSLAX44Y44*%
%MOMM*%
G71*
G04*
G04 #@! TF.SameCoordinates,40904156-3D38-421D-9BDF-46F29154AA19*
G04*
G04*
G04 #@! TF.FilePolarity,Positive*
G04*
G01*
G75*
%ADD19C,0.5000*%
%ADD20R,1.1000X1.4000*%
%ADD21R,1.0000X1.2500*%
%ADD22R,1.2192X0.9144*%
%ADD23R,1.4000X1.1000*%
%ADD24R,1.2500X1.0000*%
%ADD25R,0.6000X1.0000*%
%ADD26R,0.5500X1.3000*%
%ADD27C,1.5240*%
G04:AMPARAMS|DCode=28|XSize=0.65mm|YSize=1.2mm|CornerRadius=0.0488mm|HoleSize=0mm|Usage=FLASHONLY|Rotation=180.000|XOffset=0mm|YOffset=0mm|HoleType=Round|Shape=RoundedRectangle|*
%AMROUNDEDRECTD28*
21,1,0.6500,1.1025,0,0,180.0*
21,1,0.5525,1.2000,0,0,180.0*
1,1,0.0975,-0.2763,0.5513*
1,1,0.0975,0.2763,0.5513*
1,1,0.0975,0.2763,-0.5513*
1,1,0.0975,-0.2763,-0.5513*
%
%ADD28ROUNDEDRECTD28*%
%ADD29R,0.9500X0.9000*%
%ADD30R,2.0000X1.2500*%
%ADD31R,1.3500X0.4000*%
%ADD32R,1.9000X1.5000*%
%ADD46C,0.5080*%
%ADD47C,2.0000*%
%ADD48C,1.5000*%
%ADD49R,2.5400X0.7620*%
%ADD50R,2.9844X1.6749*%
%ADD51R,3.7612X0.9000*%
%ADD52R,5.2578X2.8862*%
%ADD53R,1.7266X3.2986*%
%ADD54R,3.5190X1.4750*%
%ADD55R,2.7766X1.3596*%
%ADD56R,2.6416X1.3970*%
%ADD57R,8.7550X0.9210*%
%ADD58R,4.1910X8.6928*%
%ADD59R,1.3076X1.6588*%
%ADD60R,2.2736X6.5532*%
%ADD61R,4.1576X3.4296*%
%ADD62R,4.0894X3.1742*%
%ADD63R,0.7206X2.9062*%
%ADD64R,1.8034X4.1408*%
%ADD65R,4.3434X5.1388*%
%ADD66R,1.2192X3.3220*%
%ADD67R,4.2426X1.7526*%
%ADD68R,2.6590X3.2598*%
%ADD69R,1.2192X2.1438*%
%ADD70R,4.6688X0.4592*%
%ADD71R,0.6000X2.2250*%
%ADD72R,0.5588X2.6496*%
%ADD73R,2.4130X0.9144*%
%ADD74R,0.6938X2.6496*%
%ADD75R,5.0292X4.2000*%
%ADD76R,3.2004X2.9618*%
%ADD77R,3.2766X0.9144*%
%ADD78R,1.2831X3.7878*%
%ADD79R,2.9500X4.0418*%
%ADD80R,6.3336X1.9982*%
%ADD81R,3.6082X0.9000*%
%ADD82R,3.1576X1.5126*%
%ADD83R,5.2558X5.5632*%
%ADD84R,0.8556X8.5932*%
%ADD85R,16.7386X2.8956*%
%ADD86R,5.3848X3.2004*%
%ADD87R,0.9906X2.8500*%
%ADD88R,0.9906X1.0414*%
%ADD89R,9.4486X6.1468*%
%ADD90R,5.4356X12.5660*%
%ADD91R,24.8768X2.9972*%
%ADD92R,2.2454X12.9812*%
%ADD93C,1.2000*%
%ADD94R,1.2000X1.2000*%
%ADD95R,1.5000X1.5000*%
%ADD96C,1.5000*%
%ADD97C,1.4500*%
%ADD98C,0.5080*%
%ADD99C,0.3810*%
G36*
X38380Y70680D02*
X19380D01*
Y57680D01*
X38380D01*
Y70680D01*
D02*
G37*
G36*
X33380Y57680D02*
X24380D01*
Y52680D01*
X33380Y52680D01*
Y57680D01*
D02*
G37*
G36*
X24380Y129680D02*
X33380D01*
Y134680D01*
X24380Y134680D01*
Y129680D01*
D02*
G37*
G36*
X19380Y116680D02*
X38380D01*
Y129680D01*
X19380D01*
Y116680D01*
D02*
G37*
D19*
X26557Y128451D02*
G03*
X26558Y128452I-2177J1229D01*
G01*
X26532Y128408D02*
G03*
X26557Y128451I-2152J1272D01*
G01*
X31089Y128680D02*
G03*
X31461Y128077I2291J1000D01*
G01*
X25609Y127503D02*
G03*
X25761Y127596I-1229J2177D01*
G01*
X26321Y128104D02*
G03*
X26457Y128288I-1941J1576D01*
G01*
X25761Y127596D02*
G03*
X26321Y128104I-1381J2084D01*
G01*
X25516Y127453D02*
G03*
X25609Y127503I-1136J2227D01*
G01*
X25265Y127342D02*
G03*
X25516Y127453I-885J2338D01*
G01*
X24484Y127182D02*
G03*
X25265Y127342I-104J2498D01*
G01*
X26457Y128288D02*
G03*
X26532Y128408I-2077J1391D01*
G01*
X31461Y128077D02*
G03*
X31515Y128014I1918J1603D01*
G01*
X31612Y127912D02*
G03*
X31714Y127816I1768J1768D01*
G01*
X31516Y128014D02*
G03*
X31612Y127912I1864J1666D01*
G01*
X33380Y132180D02*
G03*
X31089Y128680I0J-2500D01*
G01*
X35671D02*
G03*
X34983Y131599I-2291J1000D01*
G01*
X31714Y127816D02*
G03*
X35671Y128680I1666J1864D01*
G01*
X33350Y60180D02*
G03*
X30880Y57680I30J-2500D01*
G01*
Y57680D02*
G03*
X30964Y57037I2500J0D01*
G01*
X33390Y60180D02*
G03*
X33380Y60180I-10J-2500D01*
G01*
X33379D02*
G03*
X33350Y60180I0J-2500D01*
G01*
X32538Y55326D02*
G03*
X33123Y55193I842J2354D01*
G01*
D02*
G03*
X33340Y55180I257J2487D01*
G01*
X33898Y60126D02*
G03*
X33390Y60180I-518J-2446D01*
G01*
X35781Y56984D02*
G03*
X33898Y60126I-2401J696D01*
G01*
X33340Y55180D02*
G03*
X35781Y56984I40J2500D01*
G01*
X34380Y131971D02*
G03*
X33380Y132180I-1000J-2291D01*
G01*
X34578Y131874D02*
G03*
X34380Y131971I-1198J-2194D01*
G01*
X34983Y131599D02*
G03*
X34578Y131874I-1603J-1919D01*
G01*
X30964Y57037D02*
G03*
X30964Y57036I2416J643D01*
G01*
Y57036D02*
G03*
X30973Y57003I2416J644D01*
G01*
D02*
G03*
X30979Y56984I2407J677D01*
G01*
X30979Y56984D02*
G03*
X31379Y56181I2401J696D01*
G01*
D02*
G03*
X31600Y55924I2000J1499D01*
G01*
D02*
G03*
X31881Y55679I1780J1756D01*
G01*
D02*
G03*
X32538Y55326I1499J2000D01*
G01*
X24380Y132180D02*
G03*
X24483Y127182I0J-2500D01*
G01*
X24380Y60180D02*
G03*
X24380Y60180I0J-2500D01*
G01*
X26558Y128452D02*
G03*
X24380Y132180I-2178J1228D01*
G01*
D20*
X440804Y362458D02*
D03*
X423304D02*
D03*
X389522D02*
D03*
X407022D02*
D03*
D21*
X364076Y416554D02*
D03*
X344076D02*
D03*
X165260Y346456D02*
D03*
X185260D02*
D03*
D22*
X322326Y346583D02*
D03*
Y313817D02*
D03*
D23*
X394462Y324238D02*
D03*
Y341738D02*
D03*
X141754Y395861D02*
D03*
Y378361D02*
D03*
X141754Y363456D02*
D03*
Y345956D02*
D03*
D24*
X415036Y344512D02*
D03*
Y324512D02*
D03*
X366522Y340956D02*
D03*
Y320956D02*
D03*
X196342Y392016D02*
D03*
Y372016D02*
D03*
D25*
X159260Y392016D02*
D03*
X178260D02*
D03*
X159260Y366016D02*
D03*
X168760D02*
D03*
X178260D02*
D03*
D26*
X248056Y384556D02*
D03*
X257556D02*
D03*
X267056D02*
D03*
Y409556D02*
D03*
X248056D02*
D03*
D27*
X269494Y429006D02*
D03*
X419100Y429514D02*
D03*
X292100Y284988D02*
D03*
X225806Y429006D02*
D03*
X178410D02*
D03*
D28*
X352196Y392442D02*
D03*
X371196D02*
D03*
Y362942D02*
D03*
X361696D02*
D03*
X352196D02*
D03*
D29*
X288290Y412244D02*
D03*
Y380744D02*
D03*
D30*
X319532Y363418D02*
D03*
Y388918D02*
D03*
D31*
X55880Y106680D02*
D03*
Y100180D02*
D03*
Y93680D02*
D03*
Y87180D02*
D03*
Y80680D02*
D03*
D32*
X28880Y103680D02*
D03*
Y83680D02*
D03*
D46*
X128302Y357908D02*
X140254Y345956D01*
X128302Y357908D02*
Y379648D01*
X140254Y345956D02*
X141754D01*
X419100Y415290D02*
Y429514D01*
X418846Y415036D02*
X419100Y415290D01*
X121158Y411988D02*
X123698Y414528D01*
X93472Y359156D02*
Y396494D01*
Y125984D02*
Y359156D01*
X93480Y359148D02*
X102108D01*
X93472Y359156D02*
X93480Y359148D01*
X108966Y411988D02*
X121158D01*
X93472Y396494D02*
X108966Y411988D01*
X74168Y106680D02*
X93472Y125984D01*
X55880Y106680D02*
X74168D01*
D47*
X197612Y309118D02*
Y320802D01*
Y309118D02*
X199644Y307086D01*
D48*
X109982Y109474D02*
Y172782D01*
X96456Y95948D02*
X109982Y109474D01*
X96456Y95948D02*
Y95948D01*
X69188Y68680D02*
X96456Y95948D01*
X55880Y68680D02*
X69188D01*
X199644Y262444D02*
Y307086D01*
X109982Y172782D02*
X199644Y262444D01*
D49*
X149098Y364744D02*
D03*
D50*
X149288Y395486D02*
D03*
D51*
X155204Y379268D02*
D03*
D52*
X329057Y355387D02*
D03*
D53*
X385829Y352449D02*
D03*
D54*
X404691Y343137D02*
D03*
D55*
X380579Y362144D02*
D03*
D56*
X414782Y362331D02*
D03*
D57*
X402047Y377297D02*
D03*
D58*
X267335Y312704D02*
D03*
D59*
X368234Y342218D02*
D03*
D60*
X225614Y405638D02*
D03*
D61*
X377484Y421256D02*
D03*
D62*
X450215Y334641D02*
D03*
D63*
X168863Y369237D02*
D03*
D64*
X163449Y336928D02*
D03*
D65*
X189103Y412710D02*
D03*
D66*
X123952Y413666D02*
D03*
D67*
X266577Y429641D02*
D03*
D68*
X296585Y422105D02*
D03*
D69*
X251460Y412775D02*
D03*
D70*
X277900Y397010D02*
D03*
D71*
X257556Y388181D02*
D03*
D72*
X248158Y378246D02*
D03*
D73*
X257429Y369570D02*
D03*
D74*
X266025Y378246D02*
D03*
D75*
X466344Y374154D02*
D03*
D76*
X486664Y367963D02*
D03*
D77*
X234569Y369570D02*
D03*
D78*
X181676Y352663D02*
D03*
D79*
X228996Y353933D02*
D03*
D80*
X212078Y343715D02*
D03*
D81*
X183301Y379268D02*
D03*
D82*
X382484Y394005D02*
D03*
D83*
X329047Y410588D02*
D03*
D84*
X360974Y376890D02*
D03*
D85*
X386969Y316230D02*
D03*
D86*
X144780Y422402D02*
D03*
D87*
X55499Y74430D02*
D03*
D88*
Y97155D02*
D03*
D89*
X206503Y299974D02*
D03*
D90*
X500380Y332324D02*
D03*
D91*
X403174Y284480D02*
D03*
D92*
X290017Y334400D02*
D03*
D93*
X462534Y362458D02*
D03*
D94*
Y342458D02*
D03*
D95*
X233745Y344224D02*
D03*
D96*
X253746D02*
D03*
D97*
X55880Y68680D02*
D03*
Y118680D02*
D03*
D98*
X128302Y379648D02*
D03*
X418846Y415036D02*
D03*
X434636Y321654D02*
D03*
X102108Y359148D02*
D03*
D99*
X341196Y390392D02*
D03*
Y396363D02*
D03*
Y402333D02*
D03*
X387096Y395218D02*
D03*
X390652Y390392D02*
D03*
X394716Y395218D02*
D03*
M02*
