G04*
G04 #@! TF.GenerationSoftware,Altium Limited,Altium Designer,24.0.1 (36)*
G04*
G04 Layer_Physical_Order=2*
G04 Layer_Color=16711680*
%FSLAX44Y44*%
%MOMM*%
G71*
G04*
G04 #@! TF.SameCoordinates,40904156-3D38-421D-9BDF-46F29154AA19*
G04*
G04*
G04 #@! TF.FilePolarity,Positive*
G04*
G01*
G75*
%ADD46C,0.5080*%
%ADD93C,1.2000*%
%ADD94R,1.2000X1.2000*%
%ADD95R,1.5000X1.5000*%
%ADD96C,1.5000*%
%ADD97C,1.4500*%
%ADD98C,0.5080*%
%ADD99C,0.3810*%
%ADD100R,1.3000X1.1000*%
%ADD101R,6.1214X5.0432*%
%ADD102R,6.1214X3.2766*%
%ADD103R,4.2202X8.3000*%
D46*
X434636Y321654D02*
Y399246D01*
X418846Y415036D02*
X434636Y399246D01*
X115316Y379648D02*
X128302D01*
X114816Y359148D02*
X115316Y358648D01*
X102108Y359148D02*
X114816D01*
D93*
X462534Y362458D02*
D03*
D94*
Y342458D02*
D03*
D95*
X233745Y344224D02*
D03*
D96*
X253746D02*
D03*
D97*
X55880Y68680D02*
D03*
Y118680D02*
D03*
D98*
X128302Y379648D02*
D03*
X418846Y415036D02*
D03*
X434636Y321654D02*
D03*
X102108Y359148D02*
D03*
D99*
X341196Y390392D02*
D03*
Y396363D02*
D03*
Y402333D02*
D03*
X387096Y395218D02*
D03*
X390652Y390392D02*
D03*
X394716Y395218D02*
D03*
D100*
X115316Y358648D02*
D03*
Y379648D02*
D03*
D101*
X367665Y411658D02*
D03*
D102*
X367665Y420491D02*
D03*
D103*
X63481Y93180D02*
D03*
M02*
