G04*
G04 #@! TF.GenerationSoftware,Altium Limited,Altium Designer,24.0.1 (36)*
G04*
G04 Layer_Color=8388736*
%FSLAX44Y44*%
%MOMM*%
G71*
G04*
G04 #@! TF.SameCoordinates,40904156-3D38-421D-9BDF-46F29154AA19*
G04*
G04*
G04 #@! TF.FilePolarity,Negative*
G04*
G01*
G75*
%ADD21R,1.0000X1.2500*%
%ADD22R,1.2192X0.9144*%
%ADD24R,1.2500X1.0000*%
%ADD26R,0.5500X1.3000*%
%ADD29R,0.9500X0.9000*%
%ADD30R,2.0000X1.2500*%
%ADD33C,0.7032*%
%ADD34R,1.3032X1.6032*%
%ADD35R,1.6032X1.3032*%
%ADD36R,0.8032X1.2032*%
%ADD37C,1.7272*%
G04:AMPARAMS|DCode=38|XSize=0.8532mm|YSize=1.4032mm|CornerRadius=0.1504mm|HoleSize=0mm|Usage=FLASHONLY|Rotation=180.000|XOffset=0mm|YOffset=0mm|HoleType=Round|Shape=RoundedRectangle|*
%AMROUNDEDRECTD38*
21,1,0.8532,1.1025,0,0,180.0*
21,1,0.5525,1.4032,0,0,180.0*
1,1,0.3007,-0.2763,0.5513*
1,1,0.3007,0.2763,0.5513*
1,1,0.3007,0.2763,-0.5513*
1,1,0.3007,-0.2763,-0.5513*
%
%ADD38ROUNDEDRECTD38*%
%ADD39R,1.5532X0.6032*%
%ADD40R,2.1032X1.7032*%
%ADD41C,1.4032*%
%ADD42R,1.4032X1.4032*%
%ADD43R,1.7032X1.7032*%
%ADD44C,1.7032*%
%ADD45C,1.6532*%
G36*
X38513Y71689D02*
X38643Y71663D01*
X38770Y71621D01*
X38889Y71562D01*
X39000Y71488D01*
X39100Y71400D01*
X39188Y71300D01*
X39262Y71189D01*
X39320Y71069D01*
X39363Y70943D01*
X39389Y70813D01*
X39398Y70680D01*
Y57680D01*
X39389Y57547D01*
X39363Y57416D01*
X39320Y57290D01*
X39262Y57171D01*
X39188Y57060D01*
X39100Y56960D01*
X39000Y56872D01*
X38889Y56798D01*
X38770Y56739D01*
X38643Y56696D01*
X38513Y56670D01*
X38380Y56662D01*
X34398D01*
Y52680D01*
X34390Y52547D01*
X34364Y52417D01*
X34321Y52291D01*
X34292Y52232D01*
X34262Y52171D01*
X34188Y52060D01*
X34100Y51960D01*
X34100D01*
Y51960D01*
X34000Y51872D01*
X33889Y51798D01*
X33829Y51768D01*
X33770Y51739D01*
X33644Y51697D01*
X33513Y51671D01*
X33380Y51662D01*
X24380Y51662D01*
D01*
X24380D01*
X24247Y51670D01*
X24116Y51696D01*
X23990Y51739D01*
X23931Y51768D01*
X23871Y51798D01*
X23760Y51872D01*
X23660Y51960D01*
Y51960D01*
X23660D01*
X23572Y52060D01*
X23498Y52171D01*
X23468Y52231D01*
X23439Y52290D01*
X23396Y52416D01*
X23370Y52547D01*
X23362Y52680D01*
D01*
Y52680D01*
Y56662D01*
X19380D01*
X19247Y56670D01*
X19116Y56696D01*
X18990Y56739D01*
X18871Y56798D01*
X18760Y56872D01*
X18660Y56960D01*
X18572Y57060D01*
X18498Y57171D01*
X18439Y57290D01*
X18396Y57416D01*
X18370Y57547D01*
X18362Y57680D01*
Y70680D01*
X18370Y70813D01*
X18396Y70943D01*
X18439Y71069D01*
X18498Y71189D01*
X18572Y71300D01*
X18660Y71400D01*
X18760Y71488D01*
X18871Y71562D01*
X18990Y71621D01*
X19116Y71663D01*
X19247Y71689D01*
X19380Y71698D01*
X38380D01*
X38513Y71689D01*
D02*
G37*
G36*
X33513Y135689D02*
X33643Y135663D01*
X33770Y135621D01*
X33828Y135591D01*
X33889Y135562D01*
X34000Y135488D01*
X34100Y135400D01*
Y135400D01*
X34100D01*
X34188Y135300D01*
X34262Y135189D01*
X34291Y135128D01*
X34320Y135070D01*
X34363Y134944D01*
X34389Y134813D01*
X34398Y134680D01*
D01*
Y134680D01*
Y130698D01*
X38380D01*
X38513Y130689D01*
X38643Y130663D01*
X38770Y130621D01*
X38889Y130562D01*
X39000Y130488D01*
X39100Y130400D01*
X39188Y130300D01*
X39262Y130189D01*
X39320Y130070D01*
X39363Y129943D01*
X39389Y129813D01*
X39398Y129680D01*
Y116680D01*
X39389Y116547D01*
X39363Y116416D01*
X39320Y116290D01*
X39262Y116171D01*
X39188Y116060D01*
X39100Y115960D01*
X39000Y115872D01*
X38889Y115798D01*
X38770Y115739D01*
X38643Y115696D01*
X38513Y115670D01*
X38380Y115662D01*
X19380D01*
X19247Y115670D01*
X19116Y115696D01*
X18990Y115739D01*
X18871Y115798D01*
X18760Y115872D01*
X18660Y115960D01*
X18572Y116060D01*
X18498Y116171D01*
X18439Y116290D01*
X18396Y116416D01*
X18370Y116547D01*
X18362Y116680D01*
Y129680D01*
X18370Y129813D01*
X18396Y129943D01*
X18439Y130070D01*
X18498Y130189D01*
X18572Y130300D01*
X18660Y130400D01*
X18760Y130488D01*
X18871Y130562D01*
X18990Y130621D01*
X19116Y130663D01*
X19247Y130689D01*
X19380Y130698D01*
X23361D01*
Y134680D01*
X23370Y134813D01*
X23396Y134943D01*
X23439Y135069D01*
X23468Y135128D01*
X23498Y135189D01*
X23572Y135300D01*
X23660Y135400D01*
X23660D01*
Y135400D01*
X23760Y135487D01*
X23870Y135562D01*
X23931Y135591D01*
X23990Y135620D01*
X24116Y135663D01*
X24247Y135689D01*
X24379Y135698D01*
X33380Y135698D01*
D01*
X33380D01*
X33513Y135689D01*
D02*
G37*
D21*
X364076Y416554D02*
D03*
X344076D02*
D03*
X165260Y346456D02*
D03*
X185260D02*
D03*
D22*
X322326Y346583D02*
D03*
Y313817D02*
D03*
D24*
X415036Y344512D02*
D03*
Y324512D02*
D03*
X366522Y340956D02*
D03*
Y320956D02*
D03*
X196342Y392016D02*
D03*
Y372016D02*
D03*
D26*
X248056Y384556D02*
D03*
X257556D02*
D03*
X267056D02*
D03*
Y409556D02*
D03*
X248056D02*
D03*
D29*
X288290Y412244D02*
D03*
Y380744D02*
D03*
D30*
X319532Y363418D02*
D03*
Y388918D02*
D03*
D33*
X26557Y128451D02*
G03*
X26558Y128452I-2177J1229D01*
G01*
X26532Y128408D02*
G03*
X26557Y128451I-2152J1272D01*
G01*
X31089Y128680D02*
G03*
X31461Y128077I2291J1000D01*
G01*
X25609Y127503D02*
G03*
X25761Y127596I-1229J2177D01*
G01*
X26321Y128104D02*
G03*
X26457Y128288I-1941J1576D01*
G01*
X25761Y127596D02*
G03*
X26321Y128104I-1381J2084D01*
G01*
X25516Y127453D02*
G03*
X25609Y127503I-1136J2227D01*
G01*
X25265Y127342D02*
G03*
X25516Y127453I-885J2338D01*
G01*
X24484Y127182D02*
G03*
X25265Y127342I-104J2498D01*
G01*
X26457Y128288D02*
G03*
X26532Y128408I-2077J1391D01*
G01*
X31461Y128077D02*
G03*
X31515Y128014I1918J1603D01*
G01*
X31612Y127912D02*
G03*
X31714Y127816I1768J1768D01*
G01*
X31516Y128014D02*
G03*
X31612Y127912I1864J1666D01*
G01*
X33380Y132180D02*
G03*
X31089Y128680I0J-2500D01*
G01*
X35671D02*
G03*
X34983Y131599I-2291J1000D01*
G01*
X31714Y127816D02*
G03*
X35671Y128680I1666J1864D01*
G01*
X33350Y60180D02*
G03*
X30880Y57680I30J-2500D01*
G01*
Y57680D02*
G03*
X30964Y57037I2500J0D01*
G01*
X33390Y60180D02*
G03*
X33380Y60180I-10J-2500D01*
G01*
X33379D02*
G03*
X33350Y60180I0J-2500D01*
G01*
X32538Y55326D02*
G03*
X33123Y55193I842J2354D01*
G01*
D02*
G03*
X33340Y55180I257J2487D01*
G01*
X33898Y60126D02*
G03*
X33390Y60180I-518J-2446D01*
G01*
X35781Y56984D02*
G03*
X33898Y60126I-2401J696D01*
G01*
X33340Y55180D02*
G03*
X35781Y56984I40J2500D01*
G01*
X34380Y131971D02*
G03*
X33380Y132180I-1000J-2291D01*
G01*
X34578Y131874D02*
G03*
X34380Y131971I-1198J-2194D01*
G01*
X34983Y131599D02*
G03*
X34578Y131874I-1603J-1919D01*
G01*
X30964Y57037D02*
G03*
X30964Y57036I2416J643D01*
G01*
Y57036D02*
G03*
X30973Y57003I2416J644D01*
G01*
D02*
G03*
X30979Y56984I2407J677D01*
G01*
X30979Y56984D02*
G03*
X31379Y56181I2401J696D01*
G01*
D02*
G03*
X31600Y55924I2000J1499D01*
G01*
D02*
G03*
X31881Y55679I1780J1756D01*
G01*
D02*
G03*
X32538Y55326I1499J2000D01*
G01*
X24380Y132180D02*
G03*
X24483Y127182I0J-2500D01*
G01*
X24380Y60180D02*
G03*
X24380Y60180I0J-2500D01*
G01*
X26558Y128452D02*
G03*
X24380Y132180I-2178J1228D01*
G01*
D34*
X440804Y362458D02*
D03*
X423304D02*
D03*
X389522D02*
D03*
X407022D02*
D03*
D35*
X394462Y324238D02*
D03*
Y341738D02*
D03*
X141754Y395861D02*
D03*
Y378361D02*
D03*
X141754Y363456D02*
D03*
Y345956D02*
D03*
D36*
X159260Y392016D02*
D03*
X178260D02*
D03*
X159260Y366016D02*
D03*
X168760D02*
D03*
X178260D02*
D03*
D37*
X269494Y429006D02*
D03*
X419100Y429514D02*
D03*
X292100Y284988D02*
D03*
X225806Y429006D02*
D03*
X178410D02*
D03*
D38*
X352196Y392442D02*
D03*
X371196D02*
D03*
Y362942D02*
D03*
X361696D02*
D03*
X352196D02*
D03*
D39*
X55880Y106680D02*
D03*
Y100180D02*
D03*
Y93680D02*
D03*
Y87180D02*
D03*
Y80680D02*
D03*
D40*
X28880Y103680D02*
D03*
Y83680D02*
D03*
D41*
X462534Y362458D02*
D03*
D42*
Y342458D02*
D03*
D43*
X233745Y344224D02*
D03*
D44*
X253746D02*
D03*
D45*
X55880Y68680D02*
D03*
Y118680D02*
D03*
M02*
